# xmcd
# 
# Track frame offsets:
#     150
#     24305
#     56075
#     79335
#     94387
#     117962
#     133877
#     161790
# 
# Disc length: 2477
# 
# Revision: 0
# Processed by: cddbd v1.5.2PL0 Copyright (c) Steve Scherf et al.
# Submitted via: BonkEnc v1.0.8
# 
DISCID=6d09ab08
DTITLE=Randy Weston - Blues To Africa
DYEAR=1974
DGENRE=Contemporary Jazz
TTITLE0=African Village-Bedford Stuyvesant
TTITLE1=Tangier Bay
TTITLE2=Blues To Africa
TTITLE3=Kasbah Kids
TTITLE4=Uhuru Kwanza
TTITLE5=The Call
TTITLE6=Kucheza Blues
TTITLE7=Sahel
EXTD=
EXTT0=
EXTT1=
EXTT2=
EXTT3=
EXTT4=
EXTT5=
EXTT6=
EXTT7=
PLAYORDER=
